<?xml version="1.0" encoding="UTF-8" standalone="no"?>
<svg width="174px" height="40px" viewBox="0 0 174 40" version="1.1" xmlns="http://www.w3.org/2000/svg" xmlns:xlink="http://www.w3.org/1999/xlink">
    <!-- Generator: Sketch 43.2 (39069) - http://www.bohemiancoding.com/sketch -->
    <title>logo</title>
    <desc>Created with Sketch.</desc>
    <defs></defs>
    <g id="Page-1" stroke="none" stroke-width="1" fill="none" fill-rule="evenodd">
        <g id="Mobile-Portrait" transform="translate(-17.000000, -28.000000)" fill-rule="nonzero" fill="#FFFFFF">
            <g id="logo" transform="translate(17.000000, 28.000000)">
                <g id="Group-2">
                    <polyline id="Fill-69" points="10.657197 27.0023629 13.0550239 21.4389873 10.6402512 26.9635443 10.657197 27.0023629"></polyline>
                    <polyline id="Fill-70" points="5.25149522 14.5118987 0.120314992 14.5642194 5.69039075 27.4340928 8.27970494 21.5095359 5.25149522 14.5118987"></polyline>
                    <polyline id="Fill-71" points="22.4260367 0 19.8723086 5.84219409 27.1894936 22.9093671 29.0653907 27.2059072 31.698764 21.1822785 22.4260367 0"></polyline>
                    <polyline id="Fill-72" points="10.6012759 39.8749367 12.0891148 36.4718987 9.1286882 36.4718987 10.6012759 39.8749367"></polyline>
                    <polyline id="Fill-73" points="14.5293062 29.7979747 25.411882 29.7979747 23.5529306 25.464135 16.4238437 25.464135 20.023126 17.227173 17.4846491 11.3058228 13.0550239 21.4389873 10.657197 27.0023629 10.6402512 26.9635443 8.10855263 32.7549367 13.2380383 32.7549367 14.5293062 29.7979747"></polyline>
                    <polyline id="Fill-74" points="39.3870614 14.6533333 39.3599482 14.652827 39.3870614 14.5951055 39.3836722 14.4556962 34.0745614 26.6072574 31.4361045 32.6381435 31.4886364 32.7549367 36.726575 32.7549367 44.5690789 14.6001688 39.3870614 14.6533333"></polyline>
                    <polyline id="Fill-75" points="34.120315 39.8749367 35.5912081 36.4718987 32.6358652 36.4718987 34.120315 39.8749367"></polyline>
                </g>
                <g id="wazzeer" transform="translate(54.000000, 14.000000)">
                    <polyline id="Fill-62" points="11.3691388 0.302212919 16.1489234 11.2630861 20.6357656 0.896626794 22.7271531 0.896626794 16.1489234 16.1878589 11.3728469 5.20251196 6.5930622 16.1878589 0 0.896626794 2.09509569 0.896626794 6.61160287 11.3798923 11.3691388 0.302212919"></polyline>
                    <path d="M33.7844498,4.93626794 L31.411244,10.2322249 L36.1873206,10.2322249 L33.7844498,4.93626794 Z M33.791866,0.302212919 L40.8039474,15.7217464 L38.6754785,15.7217464 L36.9549043,11.9223923 L30.6510766,11.9223923 L28.9490431,15.7217464 L26.8391148,15.7217464 L33.791866,0.302212919 L33.791866,0.302212919 Z" id="Fill-63"></path>
                    <polyline id="Fill-64" points="46.7516746 0.87326555 56.7747608 0.87326555 49.6848086 13.7171292 56.6375598 13.7171292 56.6375598 15.7217464 46.40311 15.7217464 53.4559809 2.90124402 46.7516746 2.90124402 46.7516746 0.87326555"></polyline>
                    <polyline id="Fill-65" points="63.2045455 0.87326555 73.2276316 0.87326555 66.1376794 13.7171292 73.0867225 13.7171292 73.0867225 15.7217464 62.8559809 15.7217464 69.9051435 2.90124402 63.2045455 2.90124402 63.2045455 0.87326555"></polyline>
                    <polyline id="Fill-66" points="79.9244019 0.87326555 88.1527512 0.87326555 88.1527512 2.90124402 81.9305024 2.90124402 81.9305024 6.60752392 88.1527512 6.60752392 88.1527512 8.61214115 81.9305024 8.61214115 81.9305024 13.7171292 88.1527512 13.7171292 88.1527512 15.7217464 79.9244019 15.7217464 79.9244019 0.87326555"></polyline>
                    <polyline id="Fill-67" points="95.4240431 0.87326555 103.652392 0.87326555 103.652392 2.90124402 97.4264354 2.90124402 97.4264354 6.60752392 103.652392 6.60752392 103.652392 8.61214115 97.4264354 8.61214115 97.4264354 13.7171292 103.652392 13.7171292 103.652392 15.7217464 95.4240431 15.7217464 95.4240431 0.87326555"></polyline>
                    <path d="M112.374043,2.66800239 L112.374043,7.84307416 C115.366507,7.90537081 116.860885,7.0387799 116.860885,5.24367225 C116.860885,4.61440191 116.686603,4.09971292 116.338038,3.69960526 C115.989474,3.29949761 115.522249,3.02769139 114.940072,2.88381579 C114.354187,2.73994019 113.501316,2.66800239 112.374043,2.66800239 Z M110.345694,0.87326555 L113.564354,0.87326555 C115.16256,0.87326555 116.467823,1.27114833 117.472727,2.0676555 C118.48134,2.86379187 118.981938,3.88315789 118.981938,5.1261244 C118.981938,6.12027512 118.65933,6.99836124 118.006699,7.75927033 C117.354067,8.52092105 116.341746,9.05674641 114.962321,9.36711722 L119.27488,15.7217464 L116.946172,15.7217464 L112.830144,9.61444976 L112.374043,9.61444976 L112.374043,15.7217464 L110.345694,15.7217464 L110.345694,0.87326555 L110.345694,0.87326555 Z" id="Fill-68"></path>
                </g>
            </g>
        </g>
    </g>
</svg>